<svg width="340" height="340" viewBox="0 0 340 340" fill="none" xmlns="http://www.w3.org/2000/svg">
	<g filter="url(#filter0_iiiiii_51_15)">
	<circle cx="170" cy="170" r="170" fill="#632D92"/>
	</g>
	<path d="M275.759 80.8147C276.127 81.6134 276.749 82.2434 277.57 82.6006L280.987 84.0828C281.214 84.1821 281.407 84.3454 281.543 84.5527C281.678 84.76 281.751 85.0023 281.751 85.25C281.751 85.4977 281.678 85.74 281.543 85.9473C281.407 86.1546 281.214 86.3179 280.987 86.4172L277.598 87.8994C276.789 88.2412 276.142 88.8805 275.79 89.6853L273.107 95.78C272.629 96.7391 271.186 96.7391 270.705 95.78L268.022 89.6853C267.661 88.8862 267.017 88.2497 266.213 87.8994L262.824 86.4172C262.597 86.3179 262.404 86.1546 262.269 85.9473C262.133 85.74 262.061 85.4977 262.061 85.25C262.061 85.0023 262.133 84.76 262.269 84.5527C262.404 84.3454 262.597 84.1821 262.824 84.0828L266.213 82.6006C267.022 82.2588 267.67 81.6195 268.022 80.8147L270.705 74.72C271.183 73.7609 272.626 73.7609 273.107 74.72L275.759 80.8147ZM242.327 82.9016C242.59 83.4563 243.049 83.8948 243.615 84.1334L246.045 85.1459C246.776 85.475 246.776 86.4313 246.045 86.7603L243.615 87.7728C243.042 88.0015 242.581 88.443 242.327 89.0047L240.425 93.1953C240.074 93.8506 239.047 93.8506 238.699 93.1953L236.797 89.0047C236.535 88.4491 236.076 88.0104 235.509 87.7728L233.079 86.7603C232.918 86.6959 232.779 86.5846 232.682 86.4407C232.584 86.2968 232.532 86.1269 232.532 85.9531C232.532 85.7793 232.584 85.6095 232.682 85.4656C232.779 85.3217 232.918 85.2104 233.079 85.1459L235.509 84.1334C236.082 83.9047 236.543 83.4632 236.797 82.9016L238.699 78.7109C239.05 78.0556 240.077 78.0556 240.425 78.7109L242.327 82.9016ZM208.624 141.5L203.95 146.076C203.649 146.375 203.41 146.732 203.247 147.124C203.084 147.516 203 147.936 203 148.361C203 148.786 203.084 149.206 203.247 149.598C203.41 149.991 203.649 150.347 203.95 150.646L205.103 151.799C206.341 153.071 208.394 153.071 209.631 151.771L214.249 147.145L214.241 147.136L253.624 107.75L258.333 103.062C259.556 101.81 259.556 99.5741 258.333 98.3506L257.404 97.4197C256.156 96.1906 253.624 96.5 252.218 97.9062L208.624 141.5ZM270.359 114.213C269.779 113.934 269.319 113.455 269.065 112.863L267.139 108.301C266.779 107.567 265.755 107.567 265.423 108.301L263.496 112.866C263.242 113.456 262.782 113.935 262.203 114.213L259.792 115.316C259.069 115.681 259.069 116.722 259.792 117.059L262.2 118.162C262.78 118.441 263.239 118.92 263.494 119.512L265.423 124.074C265.783 124.808 266.807 124.808 267.139 124.074L269.065 119.512C269.319 118.92 269.779 118.441 270.359 118.162L272.769 117.059C273.492 116.694 273.492 115.653 272.769 115.316L270.359 114.213ZM231.124 107.75C231.87 107.75 232.586 107.454 233.113 106.926C233.641 106.399 233.937 105.683 233.937 104.938C233.937 104.192 233.641 103.476 233.113 102.949C232.586 102.421 231.87 102.125 231.124 102.125C230.379 102.125 229.663 102.421 229.136 102.949C228.608 103.476 228.312 104.192 228.312 104.938C228.312 105.683 228.608 106.399 229.136 106.926C229.663 107.454 230.379 107.75 231.124 107.75ZM281.749 104.938C281.749 105.683 281.453 106.399 280.926 106.926C280.398 107.454 279.683 107.75 278.937 107.75C278.191 107.75 277.476 107.454 276.948 106.926C276.421 106.399 276.124 105.683 276.124 104.938C276.124 104.192 276.421 103.476 276.948 102.949C277.476 102.421 278.191 102.125 278.937 102.125C279.683 102.125 280.398 102.421 280.926 102.949C281.453 103.476 281.749 104.192 281.749 104.938ZM250.812 79.625C251.558 79.625 252.273 79.3287 252.801 78.8012C253.328 78.2738 253.624 77.5584 253.624 76.8125C253.624 76.0666 253.328 75.3512 252.801 74.8238C252.273 74.2963 251.558 74 250.812 74C250.066 74 249.351 74.2963 248.823 74.8238C248.296 75.3512 247.999 76.0666 247.999 76.8125C247.999 77.5584 248.296 78.2738 248.823 78.8012C249.351 79.3287 250.066 79.625 250.812 79.625ZM253.624 127.438C253.624 128.183 253.328 128.899 252.801 129.426C252.273 129.954 251.558 130.25 250.812 130.25C250.066 130.25 249.351 129.954 248.823 129.426C248.296 128.899 247.999 128.183 247.999 127.438C247.999 126.692 248.296 125.976 248.823 125.449C249.351 124.921 250.066 124.625 250.812 124.625C251.558 124.625 252.273 124.921 252.801 125.449C253.328 125.976 253.624 126.692 253.624 127.438Z" fill="white"/>
	<path d="M157.917 208.917L136.75 188L137 187.75C151.5 171.583 161.833 153 167.917 133.333H192.333V116.667H134V100H117.333V116.667H59V133.25H152.083C146.5 149.333 137.667 164.583 125.667 177.917C117.917 169.333 111.5 159.917 106.417 150H89.75C95.8333 163.583 104.167 176.417 114.583 188L72.1667 229.833L84 241.667L125.667 200L151.583 225.917L157.917 208.917ZM204.833 166.667H188.167L150.667 266.667H167.333L176.667 241.667H216.25L225.667 266.667H242.333L204.833 166.667ZM183 225L196.5 188.917L210 225H183Z" fill="white"/>
	<defs>
	<filter id="filter0_iiiiii_51_15" x="0" y="0" width="348" height="348" filterUnits="userSpaceOnUse" color-interpolation-filters="sRGB">
	<feFlood flood-opacity="0" result="BackgroundImageFix"/>
	<feBlend mode="normal" in="SourceGraphic" in2="BackgroundImageFix" result="shape"/>
	<feColorMatrix in="SourceAlpha" type="matrix" values="0 0 0 0 0 0 0 0 0 0 0 0 0 0 0 0 0 0 127 0" result="hardAlpha"/>
	<feOffset dx="10" dy="10"/>
	<feGaussianBlur stdDeviation="4"/>
	<feComposite in2="hardAlpha" operator="arithmetic" k2="-1" k3="1"/>
	<feColorMatrix type="matrix" values="0 0 0 0 1 0 0 0 0 1 0 0 0 0 1 0 0 0 0.25 0"/>
	<feBlend mode="normal" in2="shape" result="effect1_innerShadow_51_15"/>
	<feColorMatrix in="SourceAlpha" type="matrix" values="0 0 0 0 0 0 0 0 0 0 0 0 0 0 0 0 0 0 127 0" result="hardAlpha"/>
	<feOffset dx="4" dy="4"/>
	<feGaussianBlur stdDeviation="3.5"/>
	<feComposite in2="hardAlpha" operator="arithmetic" k2="-1" k3="1"/>
	<feColorMatrix type="matrix" values="0 0 0 0 0.600977 0 0 0 0 0.586451 0 0 0 0 0.586451 0 0 0 0.25 0"/>
	<feBlend mode="normal" in2="effect1_innerShadow_51_15" result="effect2_innerShadow_51_15"/>
	<feColorMatrix in="SourceAlpha" type="matrix" values="0 0 0 0 0 0 0 0 0 0 0 0 0 0 0 0 0 0 127 0" result="hardAlpha"/>
	<feOffset dx="6" dy="6"/>
	<feGaussianBlur stdDeviation="4"/>
	<feComposite in2="hardAlpha" operator="arithmetic" k2="-1" k3="1"/>
	<feColorMatrix type="matrix" values="0 0 0 0 0.600977 0 0 0 0 0.586451 0 0 0 0 0.586451 0 0 0 0.25 0"/>
	<feBlend mode="normal" in2="effect2_innerShadow_51_15" result="effect3_innerShadow_51_15"/>
	<feColorMatrix in="SourceAlpha" type="matrix" values="0 0 0 0 0 0 0 0 0 0 0 0 0 0 0 0 0 0 127 0" result="hardAlpha"/>
	<feOffset dx="5" dy="4"/>
	<feGaussianBlur stdDeviation="5"/>
	<feComposite in2="hardAlpha" operator="arithmetic" k2="-1" k3="1"/>
	<feColorMatrix type="matrix" values="0 0 0 0 0.388235 0 0 0 0 0.176471 0 0 0 0 0.572549 0 0 0 0.25 0"/>
	<feBlend mode="normal" in2="effect3_innerShadow_51_15" result="effect4_innerShadow_51_15"/>
	<feColorMatrix in="SourceAlpha" type="matrix" values="0 0 0 0 0 0 0 0 0 0 0 0 0 0 0 0 0 0 127 0" result="hardAlpha"/>
	<feOffset dx="4" dy="4"/>
	<feGaussianBlur stdDeviation="5"/>
	<feComposite in2="hardAlpha" operator="arithmetic" k2="-1" k3="1"/>
	<feColorMatrix type="matrix" values="0 0 0 0 1 0 0 0 0 1 0 0 0 0 1 0 0 0 0.25 0"/>
	<feBlend mode="normal" in2="effect4_innerShadow_51_15" result="effect5_innerShadow_51_15"/>
	<feColorMatrix in="SourceAlpha" type="matrix" values="0 0 0 0 0 0 0 0 0 0 0 0 0 0 0 0 0 0 127 0" result="hardAlpha"/>
	<feOffset dx="4" dy="4"/>
	<feGaussianBlur stdDeviation="5"/>
	<feComposite in2="hardAlpha" operator="arithmetic" k2="-1" k3="1"/>
	<feColorMatrix type="matrix" values="0 0 0 0 0.388235 0 0 0 0 0.176471 0 0 0 0 0.572549 0 0 0 0.25 0"/>
	<feBlend mode="normal" in2="effect5_innerShadow_51_15" result="effect6_innerShadow_51_15"/>
	</filter>
	</defs>
	</svg>
	